<svg xmlns="http://www.w3.org/2000/svg" width="351" height="80" viewBox="0 0 351 80" fill="none"><g clip-path="url(#clip0)"><path d="M23.1771 31.879C19.5056 31.6253 16.4893 28.5734 16.0871 25.079C15.9963 24.8708 16.1066 24.6365 16.0093 24.4283C16.0093 24.1419 16.0093 23.8491 16.0093 23.5628C16.1131 23.3611 16.0028 23.1333 16.0871 22.9251C16.2882 21.3829 16.898 20.0424 17.8969 18.8255C19.1553 17.2833 20.79 16.5089 22.6711 16.125C22.8463 16.0339 23.0473 16.1315 23.216 16.0404C23.4755 16.0339 23.7414 16.0274 24.0009 16.0209C24.2409 15.9168 24.5004 16.0469 24.7404 15.9363C25.9793 15.8582 27.0626 15.3246 28.068 14.6674C29.9686 13.418 31.2336 11.6871 31.7525 9.44209C31.8174 9.15577 31.8563 8.85643 31.9082 8.56361C31.9211 8.49854 31.9601 8.47901 32.0184 8.51155C32.1547 8.65471 32.1936 8.84342 32.213 9.02562C32.6087 12.4549 35.4304 15.24 38.9203 15.676C39.0695 15.6955 39.2252 15.689 39.3614 15.7801C39.4003 15.8192 39.4133 15.8712 39.4003 15.9233C39.2641 16.0209 39.0825 15.9168 38.9462 16.0144C37.3635 16.2356 35.9753 16.8799 34.7688 17.9145C33.225 19.2485 32.2779 20.9339 31.9082 22.9446C31.8692 23.1593 31.8887 23.3871 31.8822 23.6083C31.759 24.0183 31.9147 24.4543 31.7979 24.8642C31.5319 26.3674 31.0325 27.7665 30.04 28.9638C28.9437 30.2783 27.588 31.1763 25.9404 31.6318C25.4993 31.7619 25.0647 31.8856 24.6041 31.8856C24.1306 31.9376 23.6506 31.9506 23.1771 31.879Z" fill="#F4811F"></path><path d="M47.8719 40.3383C47.9043 42.1018 48.6243 43.5984 49.6881 44.9389C50.9466 46.5267 52.5877 47.5223 54.5726 47.9518C54.858 48.0169 55.1434 48.0234 55.4289 48.0299C55.8116 48.1405 56.2137 48.0038 56.5965 48.108C57.9652 48.3227 59.269 48.7196 60.3977 49.5461C62.0323 50.7369 63.1351 52.3116 63.5697 54.3159C63.5956 54.446 63.6475 54.5761 63.6799 54.7063C63.7707 54.8755 63.667 55.0772 63.7643 55.2464C63.8226 56.8146 63.6086 58.3373 62.8367 59.7299C61.5977 61.9684 59.723 63.3479 57.2127 63.849C56.5056 63.9921 55.7986 63.9921 55.0915 63.9531C54.9229 63.862 54.7153 63.9661 54.5467 63.8685C53.2428 63.6733 52.0882 63.1397 51.0439 62.3458C49.5584 61.22 48.6503 59.7234 48.1638 57.9404C48.0405 57.4784 48.034 57.0164 47.9692 56.5543C47.8589 56.1769 48.0081 55.78 47.8848 55.4026C47.3724 51.5763 44.4534 48.5309 40.4186 48.0103C40.3603 47.9778 40.3538 47.9323 40.3992 47.8802C40.5678 47.7435 40.7689 47.7175 40.97 47.685C44.3107 47.236 46.9897 44.6006 47.5345 41.2493C47.5864 40.9305 47.5864 40.5986 47.7486 40.3058C47.8135 40.2602 47.8524 40.2732 47.8719 40.3383Z" fill="#F4811F"></path><path d="M47.794 40.28C47.567 44.0542 45.0826 46.9499 41.3786 47.7699C41.0478 47.8414 40.7105 47.874 40.3732 47.926C39.971 47.9846 39.5689 47.9911 39.1732 47.9195C37.0974 47.7373 35.359 46.8719 33.9773 45.3166C32.9913 44.2039 32.3232 42.922 32.0897 41.4318C31.9924 41.2626 32.0962 41.0544 32.0054 40.8852C31.9989 40.7941 31.9924 40.703 31.9859 40.6119C31.921 40.2019 31.921 39.792 31.9859 39.382C31.9924 39.2909 31.9989 39.1933 32.0054 39.1022C32.1027 38.933 31.9924 38.7313 32.0897 38.5621C32.3621 36.9743 33.0951 35.6534 34.1914 34.4691C35.586 32.9594 37.3245 32.3152 39.2834 32.0679C39.6272 31.9898 39.9775 32.0549 40.3213 32.0353C44.0836 31.9052 47.8783 35.5427 47.8394 39.5382C47.8134 39.779 47.8718 40.0327 47.794 40.28Z" fill="#D9511F"></path><path d="M31.7914 56.5481C31.4346 60.3093 28.8724 63.192 25.2139 63.8427C22.8852 64.2592 20.7835 63.7126 18.9088 62.2094C17.2677 60.8884 16.3012 59.1705 16.0352 57.1338C15.7498 54.9539 16.2428 52.9171 17.6439 51.1276C19.071 49.3121 20.9327 48.3815 23.1771 48.1147C23.6571 48.0367 24.1306 48.0432 24.6106 48.1147C26.0701 48.2969 27.4194 48.7655 28.6 49.6635C30.306 50.9519 31.3373 52.6568 31.6876 54.7716C31.7266 55.0254 31.759 55.2792 31.7979 55.5265C31.8628 55.8649 31.8628 56.2097 31.7914 56.5481Z" fill="#CED1D2"></path><path d="M9.22408 32.1783C10.4176 32.4321 11.5333 32.8551 12.5323 33.5774C14.2188 34.8008 15.2567 36.4406 15.6848 38.4708C15.7238 38.6726 15.7562 38.8743 15.7951 39.0695C15.8729 39.6877 15.8665 40.2994 15.7951 40.9176C15.5032 42.8697 14.7053 44.5681 13.2264 45.8891C11.9161 47.0604 10.3852 47.7827 8.60785 47.9194C8.16675 47.9909 7.71917 47.9909 7.27807 47.9194C4.878 47.7632 2.99037 46.6504 1.55681 44.7568C0.720023 43.6571 0.188114 42.4207 0.0908137 41.0217C-0.0194601 40.8265 0.123247 40.5922 0 40.4035C0 40.1302 0 39.8634 0 39.5901C0.123247 39.3949 -0.0194601 39.1606 0.0973004 38.9719C0.214061 37.4622 0.849757 36.1543 1.77087 34.996C2.77631 33.7336 4.07365 32.8616 5.63045 32.4061C5.96776 32.3085 6.32453 32.2499 6.66832 32.1718C6.824 32.0612 7.03158 32.1913 7.18726 32.0742C7.69322 32.0742 8.20567 32.0742 8.71163 32.0742C8.86083 32.1979 9.0684 32.0612 9.22408 32.1783Z" fill="#CED1D2"></path><path d="M71.1656 47.9197C69.505 47.8481 68.0844 47.1974 66.8065 46.1627C65.2692 44.9198 64.4 43.2865 63.9978 41.3799C63.9654 41.2302 63.9848 41.0741 63.9783 40.9179C63.907 40.2997 63.9005 39.688 63.9783 39.0698C64.0692 37.5146 64.7113 36.1611 65.6649 34.9898C66.9233 33.4476 68.5579 32.4845 70.5429 32.1787C70.6986 32.0615 70.9061 32.1982 71.0618 32.0811C71.5678 32.0811 72.0802 32.0811 72.5862 32.0811C72.7419 32.1982 72.9429 32.068 73.1051 32.1787C74.6944 32.478 76.1085 33.1613 77.2825 34.2805C78.6253 35.5559 79.3842 37.1502 79.6761 38.9722C79.7929 39.1674 79.6437 39.4017 79.7734 39.5904C79.7734 39.8637 79.7734 40.1305 79.7734 40.4038C79.6502 40.599 79.7929 40.8268 79.6826 41.022C79.3842 42.9416 78.5864 44.601 77.1204 45.8894C75.7971 47.0477 74.2922 47.8286 72.4954 47.9197C72.0478 47.9913 71.6067 47.9913 71.1656 47.9197Z" fill="#CED1D2"></path><path d="M40.6001 80.0004C40.1266 80.0004 39.6531 80.0004 39.173 80.0004C39.0174 79.8832 38.8163 80.0134 38.6541 79.9028C37.3308 79.7726 36.1632 79.2325 35.1124 78.4451C33.6464 77.3454 32.6993 75.8813 32.1934 74.1178C32.1285 73.8836 32.0766 73.6558 32.0831 73.415C31.9728 73.2589 32.109 73.0506 31.9858 72.901C31.9858 72.7318 31.9793 72.5626 31.9793 72.3869C31.9079 72.1461 31.9079 71.9119 31.9793 71.6711C32.0247 67.9164 35.1124 64.4806 39.1666 64.1552C39.6466 64.0772 40.1201 64.0772 40.6001 64.1552C42.0531 64.344 43.4024 64.806 44.5894 65.6975C46.3149 66.9989 47.3333 68.7233 47.6771 70.8577C47.7225 71.1245 47.7484 71.3978 47.7874 71.6646C47.8587 71.9054 47.8587 72.1396 47.7874 72.3804C47.7874 72.5496 47.7809 72.7188 47.7809 72.8945C47.6576 73.0506 47.7939 73.2524 47.6836 73.4085C47.3333 75.2045 46.503 76.7402 45.1408 77.9571C43.9862 78.9852 42.6629 79.675 41.119 79.8963C40.9569 80.0134 40.7558 79.8832 40.6001 80.0004Z" fill="#CED1D2"></path><path d="M39.3743 15.8388C35.7158 15.7021 32.5048 12.7088 32.0897 9.05824C32.0702 8.87603 32.0183 8.69383 31.9859 8.50512C31.921 8.13421 31.921 7.7633 31.9859 7.39238C31.9924 7.29478 31.9989 7.20367 32.0054 7.10607C32.1027 6.93688 31.9989 6.73515 32.0897 6.56596C32.3427 5.21897 32.894 4.01513 33.7438 2.92191C35.0347 1.26256 36.7731 0.449159 38.7645 0.0717392C38.9396 -0.0193621 39.1407 0.0782465 39.3159 -0.00634766C39.6986 -0.00634766 40.0813 -0.00634766 40.464 -0.00634766C40.6392 0.0782465 40.8402 -0.0128549 41.0154 0.0717392C41.8457 0.292985 42.676 0.488203 43.4544 0.891651C45.6339 2.03042 46.9896 3.79388 47.5799 6.17553C47.6124 6.30567 47.6578 6.43582 47.6967 6.56596C47.7875 6.73515 47.6837 6.93688 47.781 7.10607C47.7875 7.23621 47.794 7.36635 47.8005 7.4965C47.8783 7.81535 47.8199 8.13421 47.8394 8.45306C47.9107 12.5136 43.7203 16.5741 39.3743 15.8388Z" fill="#D9511F"></path><path d="M63.7643 23.3807C63.7643 23.7646 63.7643 24.155 63.7643 24.539C63.6735 24.7081 63.7708 24.9099 63.6864 25.0856C63.4075 26.4456 62.9534 27.7145 62.0648 28.8272C60.8518 30.3499 59.3209 31.3325 57.4333 31.749C57.1543 31.8075 56.8754 31.8401 56.5965 31.8856C56.2203 31.9702 55.8375 31.9052 55.4548 31.9247C52.4126 32.1459 48.5335 29.4454 47.8978 25.1962C47.833 24.7537 47.9757 24.3112 47.9303 23.8687C47.7357 21.6628 48.6503 19.8537 50.1098 18.3376C51.3877 17.0036 52.9704 16.1511 54.871 16.0405C54.9553 16.034 55.0397 16.008 55.124 15.995C55.377 16.0145 55.63 15.9494 55.8765 16.034C56.1035 16.0405 56.3305 16.047 56.564 16.0535C56.7392 16.1446 56.9338 16.047 57.1089 16.1316C58.2506 16.4049 59.3468 16.7693 60.3198 17.4591C62.0777 18.702 63.187 20.3613 63.5762 22.4957C63.5956 22.6128 63.6475 22.7234 63.6864 22.8341C63.7708 22.9967 63.68 23.1985 63.7643 23.3807Z" fill="#D9511F"></path><path d="M55.0721 16.0211C54.7802 16.2358 54.4234 16.1512 54.0991 16.2358C50.966 17.0687 48.9746 19.0404 48.1508 22.1834C48.0081 22.73 47.9691 23.2897 47.9756 23.8493H47.9627C47.7551 22.8407 47.6124 21.8125 47.1713 20.8755C46.7042 19.8994 46.075 19.0469 45.2966 18.2791C44.4469 17.4396 43.4414 16.867 42.3581 16.431C41.8716 16.2358 41.3397 16.1642 40.8273 16.0341C40.6327 15.9235 40.3992 16.0471 40.1981 15.9495C39.9905 15.9039 39.7829 15.8974 39.5754 15.9495C39.504 15.9885 39.4326 16.0015 39.3743 15.9235C39.3743 15.8974 39.3743 15.8714 39.3743 15.8454C40.8597 15.9104 42.2803 15.6892 43.6036 14.9474C45.8869 13.672 47.2686 11.7588 47.6837 9.16244C47.7162 8.94119 47.7551 8.72646 47.794 8.51172C47.8394 8.4987 47.8654 8.51822 47.8718 8.57028C47.9432 10.0995 48.5594 11.4205 49.4481 12.6178C50.7 14.2967 52.3477 15.3899 54.3845 15.8779C54.605 15.93 54.8191 15.943 55.0331 15.9495C55.0721 15.956 55.085 15.969 55.085 15.9885C55.0915 16.0015 55.085 16.0211 55.0721 16.0211Z" fill="#F4811F"></path><path d="M47.9626 23.8491H47.9756C47.9172 25.7948 48.5335 27.5127 49.7465 29.0029C50.953 30.48 52.5163 31.3975 54.3909 31.7619C54.7218 31.827 55.0656 31.8465 55.3964 31.8856C55.3964 31.9246 55.3834 31.9506 55.3445 31.9636C53.7228 32.0808 52.3022 32.712 51.0308 33.6946C49.3702 34.983 48.3583 36.6944 47.9302 38.7442C47.8848 38.9719 47.8913 39.2192 47.8783 39.4535C47.8653 39.4925 47.8394 39.512 47.8005 39.5055C47.6123 37.5599 46.9053 35.8224 45.5366 34.4234C44.369 33.2326 42.9354 32.4647 41.2748 32.1719C40.9764 32.1198 40.6716 32.0873 40.3667 32.0482C40.3667 32.0092 40.3797 31.9832 40.4186 31.9702C41.8197 31.9181 43.0392 31.3259 44.1744 30.5776C46.1658 29.2566 47.3204 27.3565 47.781 25.0334C47.8653 24.656 47.9432 24.2526 47.9626 23.8491Z" fill="#F4811F"></path><path d="M102.211 28.873C106.499 25.8211 111.104 24.9947 116.054 26.3026C119.569 27.2332 122.346 29.2634 124.441 32.2438C128.424 37.9116 127.795 45.9675 122.904 51.1603C117.941 56.4247 108.951 57.661 102.302 52.8587C102.101 53.0084 102.211 53.2166 102.211 53.3923C102.205 56.5808 102.211 59.7694 102.205 62.9579C102.205 63.9535 102.166 63.9926 101.186 63.9926C99.5839 63.9926 97.9817 63.9665 96.3795 64.0056C95.6789 64.0251 95.4648 63.7843 95.4648 63.0881C95.4843 55.3445 95.4778 47.6008 95.4778 39.8637C95.4778 35.6991 95.4778 31.5345 95.4778 27.3763C95.4778 26.3157 95.4908 26.2961 96.5157 26.2961C98.1438 26.2896 99.7655 26.3092 101.394 26.2896C101.984 26.2831 102.237 26.5109 102.211 27.1095C102.185 27.6431 102.211 28.1963 102.211 28.873ZM120.289 40.5145C120.322 39.6295 120.121 38.4386 119.686 37.2869C117.195 30.695 109.139 30.1354 105.5 34.2155C102.84 37.2023 102.406 40.7357 103.768 44.3863C106.122 50.6983 113.368 51.2514 117.104 48.1409C119.368 46.2538 120.302 43.7616 120.289 40.5145Z" fill="#432C47"></path><path d="M230.661 52.078C229.571 52.963 228.578 53.861 227.359 54.4206C222.831 56.4899 218.388 56.4769 214.275 53.451C211.83 51.6485 210.999 48.9936 211.213 46.0198C211.59 40.879 215.041 38.2892 219.795 37.5018C223.149 36.9422 226.47 37.2545 229.739 38.1395C230.667 38.3868 230.693 38.3673 230.667 37.4302C230.589 34.3263 228.312 32.1789 224.952 31.9837C221.942 31.808 219.049 32.2635 216.273 33.4478C215.676 33.7016 215.417 33.5974 215.229 32.9727C214.82 31.6453 214.366 30.3373 213.899 29.0294C213.73 28.5543 213.776 28.268 214.275 28.0468C219.017 25.9775 223.927 25.2747 228.994 26.3939C233.631 27.4156 236.421 30.5846 237.115 35.3088C237.251 36.2524 237.277 37.1959 237.277 38.146C237.277 43.4754 237.277 48.8114 237.277 54.1408C237.277 55.208 237.277 55.2145 236.246 55.2145C234.643 55.2145 233.041 55.195 231.439 55.221C230.836 55.2275 230.615 55.0063 230.641 54.4076C230.687 53.6267 230.661 52.8524 230.661 52.078ZM224.531 42.0569C223.039 42.0438 221.573 42.187 220.204 42.8507C218.53 43.6641 217.752 44.9916 217.895 46.8592C218.025 48.5771 219.049 49.5792 220.541 50.2039C221.787 50.7245 223.104 50.7505 224.414 50.6269C227.631 50.3145 231.16 48.447 230.829 43.8398C230.79 43.3062 230.615 43.0655 230.122 42.9158C228.299 42.3432 226.431 42.0699 224.531 42.0569Z" fill="#432C47"></path><path d="M144.939 55.8323C137.836 55.8193 131.972 51.518 130.208 44.8155C127.918 36.1349 133.23 27.5583 142.208 25.9836C147.449 25.066 152.159 26.361 156.005 30.1547C161.843 35.9071 161.824 45.5183 156.031 51.3228C152.963 54.3877 149.227 55.7997 144.939 55.8323ZM153.618 40.742C153.67 39.831 153.501 38.8028 153.17 37.8007C152.035 34.3779 149.72 32.2175 146.132 31.749C142.597 31.287 139.678 32.5038 137.732 35.6273C136.59 37.4558 136.357 39.4861 136.448 41.5944C136.694 47.3338 142.24 51.2902 147.702 49.5853C151.348 48.4531 153.618 45.1148 153.618 40.742Z" fill="#432C47"></path><path d="M170.373 30.5191C171.23 29.4129 172.079 28.4303 173.137 27.6364C176.899 24.8318 182.776 25.066 186.233 28.2286C188.166 30.005 189.029 32.3346 189.353 34.892C189.606 36.9027 189.47 38.9265 189.483 40.9437C189.503 45.3751 189.49 49.8066 189.49 54.238C189.49 55.1685 189.457 55.2011 188.562 55.2011C186.914 55.2076 185.26 55.175 183.613 55.2141C182.938 55.2271 182.737 54.9798 182.737 54.3226C182.756 49.1103 182.75 43.9045 182.743 38.6922C182.743 37.3647 182.549 36.0698 181.959 34.8659C180.908 32.7316 178.475 31.5212 175.978 31.8856C172.566 32.3802 170.464 34.6447 170.419 38.1131C170.347 43.2993 170.393 48.4856 170.386 53.6654C170.386 53.9322 170.373 54.199 170.386 54.4657C170.399 54.9863 170.172 55.2076 169.64 55.2011C167.915 55.1815 166.196 55.175 164.47 55.2076C163.828 55.2206 163.64 54.9733 163.64 54.3486C163.66 50.5289 163.653 46.7026 163.653 42.8829C163.653 37.6706 163.653 32.4648 163.653 27.2525C163.653 26.2959 163.673 26.2699 164.626 26.2634C166.274 26.2569 167.928 26.2764 169.575 26.2569C170.172 26.2504 170.399 26.4911 170.386 27.0768C170.354 28.2025 170.373 29.3153 170.373 30.5191Z" fill="#432C47"></path><path d="M200.971 39.8895C200.971 42.0304 200.958 44.1713 200.977 46.3187C200.997 48.5767 202.048 49.5983 204.299 49.6374C205.512 49.6569 206.673 49.4487 207.776 48.9671C208.346 48.7199 208.573 48.8045 208.56 49.4617C208.541 50.8217 208.547 52.1882 208.56 53.5482C208.567 53.9907 208.405 54.2836 207.996 54.4658C204.701 55.9819 201.334 56.2292 197.987 54.7586C195.808 53.802 194.822 51.8433 194.406 49.5723C194.27 48.8305 194.238 48.0757 194.238 47.3208C194.244 37.56 194.238 27.7991 194.238 18.0382C194.238 17.0166 194.244 17.0166 195.237 17.0166C196.813 17.0166 198.389 17.0166 199.972 17.0166C200.952 17.0166 200.971 17.0361 200.971 18.0513C200.971 20.511 200.99 22.9707 200.958 25.424C200.952 26.1137 201.133 26.3285 201.873 26.3024C203.858 26.2309 205.849 26.2829 207.84 26.2699C208.392 26.2634 208.619 26.4651 208.606 27.0443C208.573 28.4824 208.573 29.9139 208.606 31.352C208.619 31.9767 208.366 32.1459 207.789 32.1394C205.894 32.1199 204 32.1329 202.113 32.1329C200.977 32.1329 200.977 32.1329 200.977 33.3107C200.971 35.5102 200.971 37.6966 200.971 39.8895Z" fill="#432C47"></path><path d="M241.273 36.0503C241.273 30.0376 241.273 24.0314 241.273 18.0187C241.273 17.0166 241.279 17.0166 242.291 17.0166C243.867 17.0166 245.444 17.0426 247.02 17.0036C247.721 16.984 247.935 17.2183 247.935 17.9211C247.915 24.3698 247.922 30.8184 247.922 37.2671C247.922 42.9089 247.922 48.5572 247.922 54.1989C247.922 55.1945 247.909 55.2076 246.903 55.2076C245.327 55.2076 243.751 55.1815 242.174 55.2206C241.474 55.2401 241.26 54.9928 241.26 54.2966C241.286 48.2123 241.273 42.1345 241.273 36.0503Z" fill="#432C47"></path><path d="M281.918 41.6077C278.279 41.6077 274.64 41.6142 270.995 41.6012C270.43 41.6012 270.113 41.7313 270.197 42.382C270.664 46.1497 272.149 49.3513 275.367 51.5442C279.68 54.479 285.752 54.0235 289.605 50.4966C290.156 49.989 290.695 49.4554 291.188 48.8828C291.499 48.5184 291.752 48.4923 292.083 48.8047C292.245 48.9544 292.414 49.0975 292.589 49.2212C292.887 49.4359 292.913 49.6506 292.673 49.95C290.195 52.9954 287.049 54.8499 283.118 55.2143C279.661 55.5397 276.457 54.7653 273.641 52.657C270.586 50.3729 268.861 47.256 268.296 43.5143C267.596 38.8486 268.497 34.5473 271.559 30.8447C276.755 24.5652 288.022 24.4546 292.219 33.4801C293.27 35.7447 293.815 38.1133 293.795 40.6121C293.789 41.5686 293.769 41.6077 292.829 41.6077C289.203 41.6077 285.564 41.6077 281.918 41.6077ZM280.997 39.8247C284.344 39.8247 287.698 39.8182 291.045 39.8377C291.577 39.8377 291.778 39.7271 291.72 39.1414C291.551 37.2478 291.058 35.4583 290.189 33.773C286.92 27.4089 279.512 26.9143 275.12 30.0834C272.052 32.2958 270.664 35.4388 270.197 39.0894C270.119 39.6881 270.391 39.8442 270.943 39.8377C274.296 39.8182 277.644 39.8247 280.997 39.8247Z" fill="#432C47"></path><path d="M328.726 32.8359C329.965 30.656 331.574 28.9251 333.734 27.7082C337.756 25.4437 343.75 26.1074 347.064 29.2895C349.296 31.4303 350.36 34.1894 350.418 37.2283C350.528 42.779 350.444 48.3296 350.47 53.8803C350.476 54.6091 350.087 54.6352 349.549 54.6417C348.958 54.6482 348.608 54.5636 348.608 53.8152C348.634 48.9218 348.634 44.0284 348.615 39.1349C348.608 37.5016 348.452 35.8813 347.914 34.3196C346.831 31.1635 344.703 29.1398 341.427 28.463C337.639 27.6822 334.279 28.5346 331.581 31.4043C329.712 33.3955 328.759 35.8292 328.733 38.5623C328.694 43.5273 328.72 48.4923 328.713 53.4639C328.713 54.6026 328.318 54.8954 327.189 54.6156C326.936 54.5506 326.813 54.4204 326.8 54.1666C326.793 53.9974 326.787 53.8283 326.787 53.6526C326.787 41.5751 326.787 29.5042 326.787 17.4268C326.787 16.4442 326.806 16.4312 327.747 16.4312C328.681 16.4312 328.713 16.4572 328.713 17.4268C328.713 22.2942 328.713 27.1616 328.713 32.0355C328.726 32.3023 328.726 32.5691 328.726 32.8359Z" fill="#432C47"></path><path d="M299.582 40.7228C299.407 46.5468 303.396 51.8957 308.949 53.1516C313.301 54.1342 317.044 52.8523 320.255 49.8264C320.417 49.6768 320.566 49.5206 320.722 49.3644C321.468 48.6031 321.935 48.6551 322.571 49.5271C322.778 49.8069 322.629 49.9696 322.467 50.1583C319.969 52.9694 316.94 54.8305 313.145 55.1949C308.559 55.6309 304.635 54.1928 301.431 50.8481C296.228 45.4275 296.254 36.2068 301.482 30.8188C305.744 26.4329 311.686 25.19 317.258 27.5586C319.165 28.3655 320.748 29.6475 322.181 31.1246C322.454 31.4044 322.48 31.6062 322.201 31.9185C321.299 32.9271 321.312 32.9336 320.346 31.9901C317.881 29.5824 314.988 28.1768 311.485 28.1899C305.718 28.2094 300.73 32.4781 299.757 38.237C299.621 39.083 299.575 39.9289 299.582 40.7228Z" fill="#432C47"></path><path d="M254.7 32.9076C254.7 27.9426 254.7 22.9776 254.7 18.0126C254.7 17.1276 255.602 16.6265 256.38 17.082C256.724 17.2837 256.62 17.6416 256.62 17.941C256.627 20.6155 256.627 23.2964 256.627 25.9709C256.627 26.986 256.64 27.0056 257.632 27.0056C260.279 27.0056 262.925 27.0056 265.565 27.0056C266.435 27.0056 266.876 27.7474 266.48 28.5218C266.305 28.8601 265.981 28.7755 265.708 28.7755C263.016 28.782 260.318 28.782 257.626 28.782C256.633 28.782 256.627 28.782 256.627 29.8037C256.627 35.6211 256.627 41.4386 256.627 47.2561C256.627 47.9654 256.659 48.6617 256.808 49.3579C257.301 51.6225 258.982 53.0931 261.297 53.2623C262.796 53.3729 264.262 53.2297 265.65 52.6246C266.234 52.3708 266.389 52.5074 266.428 53.1386C266.48 53.926 266.201 54.336 265.449 54.5702C263.373 55.221 261.297 55.3251 259.222 54.6743C256.419 53.8024 254.726 51.2385 254.707 47.8027C254.687 42.8442 254.7 37.8792 254.7 32.9076Z" fill="#432C47"></path></g><defs><clipPath id="clip0"><rect width="350.476" height="80" fill="white"></rect></clipPath></defs></svg>